<?xml version="1.0" encoding="UTF-8"?>
<svg version="1.1" xmlns="http://www.w3.org/2000/svg" width="2000" height="2000">
<path d="M0 0 C0.29375802 18.53428847 -0.56651095 36.99436848 -1.46740672 55.49926743 C-1.69175145 60.13216991 -1.90988666 64.76536599 -2.1288929 69.39852333 C-2.5192239 77.63809415 -2.91349425 85.87746933 -3.31028175 94.11673164 C-3.91303598 106.6333899 -4.50962795 119.15033702 -5.10517233 131.66734012 C-6.16348989 153.90642981 -7.22719907 176.14525919 -8.293396 198.38397217 C-9.48573702 223.25417264 -10.67542368 248.12449866 -11.862854 272.99493408 C-11.94333481 274.68053207 -12.02381581 276.36613005 -12.104297 278.05172803 C-12.43162122 284.90726738 -12.75893378 291.7628073 -13.08623222 298.61834789 C-16.17460625 363.30633359 -19.26820277 427.99406888 -22.36523438 492.68164062 C-22.41067642 493.63079239 -22.45611847 494.57994415 -22.50293754 495.55785808 C-23.65918232 519.7084011 -24.81556527 543.85893749 -25.97199411 568.00947169 C-27.00572034 589.59753889 -28.0393851 611.18560902 -29.07299805 632.77368164 C-29.11957131 633.7464089 -29.16614458 634.71913615 -29.21412916 635.72133999 C-30.28485491 658.0845191 -31.35545896 680.44770403 -32.42573833 702.8109045 C-32.47109245 703.75856518 -32.51644656 704.70622586 -32.56317504 705.68260352 C-33.01668337 715.15857175 -33.47017374 724.63454084 -33.92363645 734.11051125 C-34.87902504 754.07508268 -35.8347292 774.03963892 -36.79118051 794.00415947 C-37.48168822 808.41758715 -38.17175403 822.83103593 -38.86141543 837.24450413 C-39.24729422 845.30879053 -39.63339433 853.37306621 -40.02005637 861.43731511 C-41.47814491 891.84923699 -42.92948801 922.26135007 -44.31823827 952.67652795 C-44.49430714 956.53023272 -44.67097285 960.38390964 -44.84784502 964.23757762 C-44.96139104 966.71269281 -45.07492585 969.18780852 -45.18844891 971.66292477 C-45.24334353 972.85957366 -45.29823816 974.05622255 -45.35479626 975.28913353 C-45.66738526 982.11536602 -45.97517663 988.94179169 -46.27883527 995.76842698 C-46.46266 999.87924281 -46.65065925 1003.98986054 -46.83969153 1008.10043986 C-46.92377848 1009.94896047 -47.00609742 1011.79756271 -47.0863062 1013.64625566 C-47.50077395 1023.18633399 -48.07805246 1032.6922755 -48.95502949 1042.20205021 C-49.03170229 1043.05262777 -49.1083751 1043.90320533 -49.18737132 1044.77955797 C-51.92051988 1072.86391556 -64.65011288 1099.98894917 -82 1122 C-82.72574219 1122.93457031 -83.45148438 1123.86914062 -84.19921875 1124.83203125 C-90.09098199 1132.2258239 -96.49344555 1139.14886167 -103 1146 C-103.78503906 1146.82757812 -104.57007813 1147.65515625 -105.37890625 1148.5078125 C-110.88406796 1154.16069769 -116.83753279 1159.0842291 -123 1164 C-124.11228322 1164.92385093 -125.2228936 1165.84971872 -126.33203125 1166.77734375 C-188.08861077 1217.99406554 -272.54715888 1243.19466704 -352.0625 1243.25 C-352.94028107 1243.25067474 -353.81806213 1243.25134949 -354.72244263 1243.25204468 C-409.50613745 1243.18558901 -470.654094 1230.506843 -511.90234375 1191.94140625 C-514.09761416 1189.85319134 -514.09761416 1189.85319134 -517.0625 1187.625 C-521.61898987 1183.55324309 -525.25068445 1178.809599 -529 1174 C-529.68449219 1173.14277344 -530.36898437 1172.28554687 -531.07421875 1171.40234375 C-549.96328635 1146.79831267 -556.23837645 1115.46158598 -552.27709961 1085.04833984 C-547.11224195 1051.99473606 -529.53578549 1022.62964464 -507.17578125 998.36328125 C-505.69441062 996.75425211 -504.23409096 995.12564366 -502.79296875 993.48046875 C-497.55522652 987.50889223 -492.03367925 982.16143649 -486 977 C-485.4337793 976.5054834 -484.86755859 976.0109668 -484.28417969 975.50146484 C-415.0635582 915.22958616 -317.00861786 886.8948169 -226.15014648 892.515625 C-187.54938313 895.27796066 -145.68161791 904.21225473 -113 926 C-113.00774382 925.09868284 -113.01548763 924.19736568 -113.02346611 923.26873589 C-113.06835366 913.94518903 -112.79631905 904.66942458 -112.33251953 895.35595703 C-112.25954664 893.83606897 -112.18689355 892.31616552 -112.1145277 890.79624844 C-111.91655223 886.65693502 -111.71414511 882.51784882 -111.51098084 878.37878728 C-111.29128047 873.88603094 -111.07585055 869.39306952 -110.85990906 864.90013123 C-110.48396431 857.08956967 -110.10546849 849.27913516 -109.72525024 841.46878052 C-109.11615281 828.95584417 -108.5121994 816.44266211 -107.90893555 803.92944336 C-107.70027873 799.60264406 -107.49157763 795.27584689 -107.28285217 790.9490509 C-107.23059493 789.86574798 -107.17833768 788.78244506 -107.12449688 787.66631478 C-106.74749581 779.85264316 -106.36975402 772.03900754 -105.99168396 764.22538757 C-103.90175682 721.0289416 -101.83522094 677.83138863 -99.77175426 634.63367176 C-99.08207019 620.19660279 -98.39112016 605.7595949 -97.69920051 591.32263291 C-97.23425015 581.62134401 -96.76944622 571.92004809 -96.3046875 562.21875 C-96.25463853 561.17407334 -96.20458956 560.12939668 -96.15302396 559.05306315 C-94.89467315 532.78532876 -93.64366083 506.517269 -92.40731531 480.24848944 C-92.15093261 474.80217774 -91.89380451 469.3559017 -91.63609314 463.90965271 C-91.60117584 463.17169564 -91.56625855 462.43373858 -91.53028315 461.67341918 C-91.39297151 458.77184388 -91.25563104 455.87026995 -91.11818016 452.96870124 C-90.70400127 444.2253205 -90.29363142 435.48177826 -89.88740921 426.73802376 C-89.66549469 421.98026609 -89.439987 417.22268423 -89.21335983 412.46514893 C-89.11152437 410.31103937 -89.01125401 408.15685516 -88.91267776 406.00259399 C-88.78107674 403.12985481 -88.64408141 400.25742492 -88.50561523 397.38500977 C-88.46879041 396.55116036 -88.43196558 395.71731096 -88.39402485 394.8581934 C-88.11413748 389.22827495 -88.11413748 389.22827495 -87 387 C-88.86382576 387.42350235 -88.86382576 387.42350235 -90.76530457 387.8555603 C-99.34726129 389.56323042 -108.06496689 390.35336869 -116.75512695 391.31103516 C-118.79879119 391.53951674 -120.8424122 391.76838523 -122.88599396 391.99760342 C-127.356759 392.49818054 -131.82782734 392.99592781 -136.29914284 393.4915638 C-143.71754001 394.31388042 -151.13524404 395.14234602 -158.55290222 395.97129822 C-169.58655855 397.20367239 -180.62055815 398.4329333 -191.65478516 399.66018677 C-208.78360559 401.56535503 -225.91178159 403.47627455 -243.03982857 405.38838239 C-250.18599524 406.18613321 -257.3321795 406.98372652 -264.47836304 407.78132629 C-265.28527814 407.87138983 -266.09219323 407.96145336 -266.92356031 408.05424609 C-278.77956761 409.37753272 -290.63566092 410.70004661 -302.49181293 412.02203601 C-363.66667418 418.8432067 -424.83948173 425.68268181 -486.01171875 432.52734375 C-487.21275554 432.66172946 -488.41379232 432.79611517 -489.65122417 432.93457317 C-512.73208473 435.51713474 -535.81292363 438.09988982 -558.89373875 440.68285751 C-589.0119596 444.05336299 -619.13028118 447.42296685 -649.24868715 450.79181771 C-664.18051848 452.46200739 -679.11232115 454.13245334 -694.04412025 455.80293113 C-705.85942393 457.12474551 -717.67474775 458.44637954 -729.49010029 459.76775702 C-737.47631244 460.6609223 -745.46249196 461.55437895 -753.44865087 462.44802008 C-758.15275966 462.97438692 -762.85688526 463.50060243 -767.56105292 464.02644289 C-784.40334524 465.90914397 -801.24547903 467.79255748 -818.08251065 469.72182975 C-820.04407721 469.94654173 -822.00569332 470.170821 -823.96731043 470.39509124 C-829.70565996 471.0512417 -835.44364024 471.71024018 -841.18083954 472.37637424 C-843.10691339 472.59735634 -845.03300131 472.81821588 -846.95910645 473.03892517 C-847.8034792 473.13837445 -848.64785196 473.23782372 -849.51781178 473.34028661 C-850.29417579 473.42858193 -851.0705398 473.51687724 -851.87042999 473.60784817 C-852.52935509 473.68428726 -853.18828019 473.76072635 -853.86717272 473.83948177 C-856.58198766 474.04380084 -859.27866801 474.02432562 -862 474 C-862.02148525 474.69046165 -862.04297049 475.38092331 -862.06510681 476.09230804 C-862.70092794 496.20078371 -863.58353095 516.29080979 -864.55968586 536.38517976 C-864.77200942 540.76560038 -864.98194203 545.14613574 -865.19217491 549.5266571 C-865.55873633 557.15840462 -865.92665832 564.79008551 -866.29551506 572.42172241 C-866.89335842 584.7918735 -867.48834567 597.1621612 -868.082901 609.5324707 C-868.29080778 613.85768168 -868.49872645 618.18289209 -868.70664692 622.50810242 C-868.7588097 623.59326497 -868.81097249 624.67842753 -868.86471596 625.7964738 C-869.24173272 633.63909488 -869.61912489 641.48169785 -869.9966383 649.32429504 C-871.56387187 681.88640414 -873.12222571 714.44893106 -874.67529297 747.01171875 C-874.73105768 748.18089899 -874.78682239 749.35007923 -874.84427693 750.55468917 C-875.29768664 760.06117019 -875.75106753 769.56765258 -876.204394 779.07413757 C-877.06091871 797.03572026 -877.91849184 814.99725262 -878.77700806 832.95874023 C-878.86232902 834.74380114 -878.86232902 834.74380114 -878.94937365 836.56492388 C-879.52481954 848.60388606 -880.10040147 860.64284174 -880.67605504 872.68179399 C-880.9644833 878.71396815 -881.2528808 884.74614379 -881.54125977 890.77832031 C-881.59847051 891.97501229 -881.65568126 893.17170426 -881.71462567 894.40465963 C-882.66183072 914.21900922 -883.6066861 934.0334703 -884.55082756 953.84796607 C-885.54082975 974.62379806 -886.53334195 995.39950906 -887.52816397 1016.17511082 C-888.13202024 1028.78750631 -888.73400058 1041.39998817 -889.33335275 1054.01259851 C-889.73936804 1062.55277818 -890.14783333 1071.09283852 -890.55818164 1079.63281107 C-890.79306041 1084.52245267 -891.02692989 1089.41213637 -891.25782967 1094.30196762 C-892.05406035 1111.14833925 -892.85560121 1127.99411411 -893.98512268 1144.82202148 C-894.05391725 1145.90888024 -894.12271181 1146.995739 -894.19359106 1148.11553288 C-897.60015462 1195.84479966 -928.21953886 1236.789208 -963.11669922 1267.3984375 C-1022.87146658 1318.21400321 -1105.2136564 1349.64308925 -1183.67578125 1350.23828125 C-1184.75170029 1350.2480751 -1185.82761932 1350.25786896 -1186.93614197 1350.26795959 C-1251.37578935 1350.73393231 -1315.301751 1339.46099263 -1364 1294 C-1384.81535795 1273.47021861 -1398.03790019 1245.33880371 -1398.38061523 1216.02636719 C-1398.37876221 1214.71829102 -1398.37690918 1213.41021484 -1398.375 1212.0625 C-1398.37412384 1211.38191528 -1398.37324768 1210.70133057 -1398.37234497 1210.00012207 C-1398.17078796 1162.34897508 -1371.42939314 1124.03545319 -1338.85522461 1091.55029297 C-1332.45491988 1085.26960405 -1325.92593123 1079.46375301 -1318.66259766 1074.20947266 C-1316.91574368 1072.93870693 -1315.19751648 1071.63493144 -1313.48046875 1070.32421875 C-1260.78453658 1030.40198458 -1195.38876244 1007.77081775 -1130 1001 C-1129.07735352 1000.90428711 -1128.15470703 1000.80857422 -1127.20410156 1000.70996094 C-1100.26353989 998.27982298 -1071.67947601 998.47694387 -1045 1003 C-1043.84757812 1003.19335938 -1042.69515625 1003.38671875 -1041.5078125 1003.5859375 C-1012.44914551 1008.64776982 -984.35708023 1017.67698685 -959 1033 C-958.95231405 1031.96084601 -958.9046281 1030.92169203 -958.85549712 1029.85104853 C-956.22670306 972.58444866 -953.55370736 915.32009029 -950.82128906 858.05834961 C-950.78657939 857.33092924 -950.75186971 856.60350887 -950.71610823 855.85404546 C-949.79924911 836.64001665 -948.88081154 817.42606338 -947.96186592 798.21213427 C-947.41110747 786.6962593 -946.86073608 775.18036587 -946.31060028 763.66446114 C-946.2706597 762.82839756 -946.23071912 761.99233399 -946.18956821 761.13093516 C-946.02715518 757.73117616 -945.86474426 754.33141705 -945.70233614 750.93165781 C-944.23550176 720.2258092 -942.76790309 689.51999718 -941.29980469 658.81420898 C-939.98200921 631.25205601 -938.66465761 603.68988188 -937.34792381 576.12767817 C-937.17968757 572.60611888 -937.01144865 569.08455972 -936.84320983 565.56300055 C-936.71724934 562.92640691 -936.59128913 560.28981327 -936.46532902 557.65321962 C-936.42381076 556.78416059 -936.3822925 555.91510156 -936.33951611 555.01970741 C-936.25572326 553.26575635 -936.1719305 551.51180529 -936.08813782 549.75785422 C-933.8396349 502.69213116 -931.59085873 455.62642133 -929.33850098 408.56088257 C-929.29932906 407.74233408 -929.26015713 406.92378559 -929.21979818 406.0804326 C-928.48489931 390.72382359 -927.74992446 375.36721822 -927.01478291 360.01062083 C-926.5701081 350.72166221 -926.12547346 341.43270166 -925.6809082 332.14373779 C-925.64504217 331.39434012 -925.60917615 330.64494245 -925.57222327 329.87283576 C-924.41691298 305.73273355 -923.26462004 281.59248892 -922.11434484 257.45214623 C-921.23995417 239.10226768 -920.36376389 220.7524758 -919.48576808 202.40276939 C-918.9589104 191.39002536 -918.43377152 180.37720254 -917.91118866 169.36425482 C-917.57029519 162.18353042 -917.22725113 155.002911 -916.88234729 147.82237811 C-916.68952376 143.80664584 -916.4976596 139.79087436 -916.30856609 135.77496457 C-916.13908964 132.17584801 -915.96681605 128.57687696 -915.79224917 124.97800381 C-915.70145623 123.09116401 -915.61368621 121.20417949 -915.52604699 119.31719059 C-914.9328287 107.21322371 -914.9328287 107.21322371 -914 102 C-910.96445455 100.48222727 -907.70246577 100.41599193 -904.36581421 100.05278015 C-903.56098048 99.96209637 -902.75614674 99.87141258 -901.92692411 99.7779808 C-899.18784396 99.47032142 -896.44818016 99.16819775 -893.70849609 98.8659668 C-891.72169476 98.64395378 -889.73493157 98.42159924 -887.74820328 98.1989336 C-883.36899266 97.70890734 -878.98951187 97.22138991 -874.60982132 96.735672 C-867.31590286 95.92673468 -860.02259772 95.11235147 -852.7293396 94.29748535 C-841.8124545 93.07833905 -830.89527362 91.8618745 -819.97790527 90.64706421 C-802.84766528 88.74085567 -785.71799462 86.82956413 -768.58846891 84.91694869 C-766.23025018 84.65363951 -763.87203033 84.39034034 -761.51381016 84.12704408 C-755.01294599 83.40121792 -748.51208214 82.67538879 -742.01122427 81.94950622 C-732.57729143 80.89613626 -723.14332244 79.84309097 -713.70931599 78.7903805 C-650.06300031 71.68828786 -586.419446 64.56164673 -522.77669126 57.4277198 C-518.95827836 56.99970193 -515.13986463 56.5716915 -511.32145071 56.14368272 C-481.75091925 52.82908774 -452.18043668 49.5140567 -422.6099775 46.19881701 C-396.23309234 43.24162077 -369.85617817 40.28468339 -343.47923827 37.32797539 C-338.59055529 36.77997987 -333.70187411 36.23196835 -328.81319451 35.68394268 C-303.87727213 32.88860712 -278.94129125 30.09379672 -254.00503577 27.30143391 C-244.88692969 26.28037757 -235.76883767 25.25919572 -226.65074816 24.23799138 C-224.41028714 23.98706873 -222.16982522 23.7361541 -219.92936239 23.48524757 C-190.10772201 20.14553812 -160.28726289 16.79554523 -130.4681329 13.43349605 C-118.01943114 12.03011401 -105.57032185 10.6303542 -93.12115979 9.231062 C-83.45919132 8.14485378 -73.7976155 7.05527408 -64.13655555 5.96101414 C-57.73355284 5.23605028 -51.33011906 4.51498537 -44.92631757 3.7971117 C-41.29605118 3.39001934 -37.66600988 2.98114543 -34.03650951 2.56727433 C-30.14098946 2.12308551 -26.24453959 1.68745419 -22.34796143 1.25263977 C-21.23094715 1.12383098 -20.11393287 0.9950222 -18.96306968 0.86231011 C-12.6114878 0.16208486 -6.38955402 -0.16047976 0 0 Z M-86.30250549 132.16482544 C-87.28288644 132.2906244 -88.26326739 132.41642335 -89.27335685 132.5460344 C-92.59328284 132.97235413 -95.91297147 133.40049533 -99.23266602 133.82861328 C-101.61875036 134.13539907 -104.00484896 134.44207401 -106.39096069 134.74864674 C-111.58613753 135.41639509 -116.78121199 136.08493413 -121.9761982 136.75416374 C-129.64970476 137.74267918 -137.32339428 138.72976849 -144.99712371 139.71655213 C-157.82332836 141.36594875 -170.64937941 143.01653687 -183.4753418 144.66781616 C-196.23568678 146.31064653 -208.99609666 147.95297132 -221.7565918 149.59463501 C-222.55265699 149.6970509 -223.34872219 149.79946679 -224.16891058 149.9049862 C-227.39502168 150.32003248 -230.62113321 150.73507545 -233.84724531 151.15011397 C-265.66407055 155.2433444 -297.48068316 159.33822555 -329.29718971 163.4339323 C-332.45897032 163.84094483 -335.620751 164.24795679 -338.78253174 164.65496826 C-339.55564355 164.75449003 -340.32875535 164.8540118 -341.12529479 164.95654938 C-357.08201692 167.01063192 -373.03880343 169.06421408 -388.99560547 171.11767578 C-439.85339902 177.66258167 -490.71084435 184.21018357 -541.56776875 190.76183981 C-570.83028641 194.53156421 -600.09304791 198.29938818 -629.35605717 202.06529415 C-645.9770557 204.20428103 -662.5980285 206.34346716 -679.21887207 208.48365784 C-680.32847728 208.62653664 -680.32847728 208.62653664 -681.46049875 208.77230189 C-688.88789268 209.72870233 -696.31527846 210.68516604 -703.74265429 211.64170696 C-707.42055703 212.11536761 -711.09846156 212.58901437 -714.77636719 213.06265259 C-715.50081372 213.15594668 -716.22526026 213.24924078 -716.97165972 213.34536197 C-728.54843517 214.83618294 -740.12536191 216.32582584 -751.70234814 217.81500897 C-763.24263138 219.29949699 -774.78274688 220.78528256 -786.32270312 222.2723105 C-792.59851724 223.08096598 -798.87440567 223.88903361 -805.15048981 224.69559097 C-810.91739458 225.43672493 -816.68409065 226.17946083 -822.45062256 226.92349017 C-824.54489119 227.19341184 -826.63923709 227.46273485 -828.73366547 227.7314142 C-831.57194184 228.09560361 -834.40993421 228.46193101 -837.24786377 228.82881165 C-838.07041129 228.93383173 -838.89295882 229.03885181 -839.74043202 229.14705431 C-843.52785773 229.63892158 -847.26527871 230.18382554 -851 231 C-851.65623069 244.30064606 -852.30847463 257.60148125 -852.95575714 270.90256596 C-853.25650175 277.08007855 -853.55857231 283.25752012 -853.86376953 289.43481445 C-854.15875098 295.40636034 -854.45012351 301.37807278 -854.73908997 307.34991264 C-854.84945073 309.6178956 -854.9610689 311.88581776 -855.07402039 314.15367317 C-855.23310852 317.35237369 -855.38755016 320.55126956 -855.54101562 323.75024414 C-855.58776932 324.66879181 -855.63452301 325.58733948 -855.68269348 326.53372192 C-856.05025088 334.35906522 -856.0437958 342.16767227 -856 350 C-815.82183583 345.00496151 -775.65454739 339.93211776 -735.49884895 334.75917908 C-728.16987333 333.81509589 -720.84071697 332.87241892 -713.51156192 331.92972989 C-699.13539251 330.08059667 -684.75939028 328.23016653 -670.38346183 326.37916101 C-657.77817959 324.7561472 -645.17282687 323.13368193 -632.56741333 321.51168823 C-631.72097341 321.40277238 -630.87453349 321.29385652 -630.00244387 321.18164019 C-626.56213357 320.73895759 -623.12182311 320.29627612 -619.6815124 319.85359671 C-528.48396441 308.11876498 -437.28802688 296.37141803 -266.39753497 274.35386693 C-262.1717265 273.80929701 -257.94591698 273.26473523 -253.72010705 272.72017666 C-249.58036704 272.18670926 -245.44062748 271.65323828 -241.30088806 271.11976624 C-240.49305237 271.01566373 -239.68521668 270.91156123 -238.85290112 270.8043041 C-229.61246058 269.61352216 -220.37202861 268.42267381 -211.13161812 267.23165866 C-207.56795045 266.77233334 -204.00427904 266.31303702 -200.44059855 265.8538112 C-199.03711861 265.67295376 -197.63363869 265.49209612 -196.23015881 265.31123829 C-195.54034253 265.22234679 -194.85052626 265.13345528 -194.13980647 265.0418701 C-190.04780131 264.51452944 -185.95583402 263.98689606 -181.86389619 263.45903313 C-167.20988445 261.56876478 -152.55493393 259.68611343 -137.89845689 257.81504861 C-132.99689272 257.18905354 -128.09548492 256.56183506 -123.19407808 255.93460942 C-118.48671057 255.33238368 -113.77907827 254.73228434 -109.07123724 254.13377222 C-106.17412672 253.76496265 -103.27727139 253.39417887 -100.38048248 253.02285261 C-98.39056468 252.76840019 -96.40033566 252.51638542 -94.41009963 252.26443422 C-93.22313628 252.11191938 -92.03617294 251.95940453 -90.813241 251.80226803 C-89.78131471 251.67072541 -88.74938841 251.5391828 -87.68619162 251.40365404 C-85.40009195 251.06012182 -83.22670403 250.61203522 -81 250 C-80.06157976 244.22888362 -79.69390648 238.51529944 -79.42749023 232.67773438 C-79.37857635 231.66383133 -79.32966248 230.64992828 -79.27926636 229.6053009 C-79.1191293 226.26826301 -78.96376834 222.93102204 -78.80859375 219.59375 C-78.69816456 217.26638658 -78.58748889 214.93903484 -78.47657776 212.61169434 C-78.24510156 207.73975941 -78.01585623 202.86772643 -77.78833008 197.99560547 C-77.49696208 191.7579497 -77.20121601 185.52051139 -76.90394497 179.28313446 C-76.67526965 174.47904702 -76.44832974 169.67487889 -76.22197151 164.87068176 C-76.11352223 162.57101062 -76.00467335 160.27135828 -75.89541435 157.97172546 C-75.74297667 154.75531462 -75.59273229 151.53880875 -75.44311523 148.32226562 C-75.39793259 147.37660233 -75.35274994 146.43093903 -75.30619812 145.45661926 C-75.08418625 140.63121829 -74.95313987 135.83049209 -75 131 C-78.78626384 131 -82.55094715 131.67956196 -86.30250549 132.16482544 Z " fill="#19090B" transform="translate(1663,325)"/>
</svg>
